<?xml version="1.0" encoding="UTF-8"?>
<svg id="Layer_1" data-name="Layer 1" xmlns="http://www.w3.org/2000/svg" viewBox="0 0 144 144">
  <defs>
    <style>
      .cls-1 {
        fill: none;
        stroke: #000;
        stroke-miterlimit: 10;
        stroke-width: .22px;
      }

      .cls-2 {
        fill: #7630ec;
      }

      .cls-3 {
        fill: #060710;
        fill-rule: evenodd;
      }
    </style>
  </defs>
  <path class="cls-1" d="M103.4,121.48l-.05,7.88-62.62-.07-.04-7.84h-15.68l.03-15.59-7.91-.02,.08-62.63,7.86-.09-.06-15.59,15.67-.03,.04-7.85h62.64v7.85h15.72v15.67h7.78v62.64h-7.79v15.64s-15.64-.02-15.68,.02h.01Z"/>
  <g>
    <path class="cls-3" d="M105.47,74.51c0,18.49-14.99,33.48-33.48,33.48s-33.48-14.99-33.48-33.48,14.99-33.48,33.48-33.48,33.48,14.99,33.48,33.48Zm-19.13,26.18l11.84-11.84-5.63-5.63c-2.26,5.32-6.52,9.58-11.84,11.84l5.63,5.63Zm-21.51-5.04c-5.52-1.87-10.08-5.84-12.71-10.97l-4.56,4.56,11.84,11.84,5.43-5.43Zm-13.39-29.86c2.26-5.32,6.52-9.58,11.84-11.84l-4.56-4.56-11.84,11.84,4.56,4.56Zm30.73-11.15l4.84-4.84,11.84,11.84-5.71,5.71c-1.87-5.52-5.84-10.08-10.97-12.71Z"/>
    <path class="cls-2" d="M79.72,70.87c-.49-.26-1.12-.26-1.68,0l-3.92,2.19-2.66,1.39-3.85,2.19c-.49,.27-1.12,.27-1.68,0l-3.01-1.72c-.49-.26-.84-.79-.84-1.39v-3.31c0-.53,.28-1.06,.84-1.39l3.01-1.66c.49-.26,1.12-.26,1.68,0l3.01,1.72c.49,.26,.84,.79,.84,1.39v2.19l2.66-1.46v-2.25c0-.53-.28-1.06-.84-1.39l-5.59-3.11c-.49-.27-1.12-.27-1.68,0l-5.73,3.18c-.56,.27-.84,.79-.84,1.32v6.23c0,.53,.28,1.06,.84,1.39l5.66,3.11c.49,.26,1.12,.26,1.68,0l3.85-2.12,2.66-1.46,3.85-2.12c.49-.26,1.12-.26,1.68,0l3.01,1.66c.49,.26,.84,.79,.84,1.39v3.31c0,.53-.28,1.06-.84,1.39l-2.94,1.66c-.49,.26-1.12,.26-1.68,0l-3.01-1.66c-.49-.26-.84-.79-.84-1.39v-2.12l-2.66,1.46v2.19c0,.53,.28,1.06,.84,1.39l5.66,3.11c.49,.26,1.12,.26,1.68,0l5.66-3.11c.49-.26,.84-.79,.84-1.39v-6.29c0-.53-.28-1.06-.84-1.39l-5.66-3.11Z"/>
  </g>
</svg>