<?xml version="1.0" encoding="UTF-8"?>
<svg id="Layer_1" data-name="Layer 1" xmlns="http://www.w3.org/2000/svg" viewBox="0 0 144 144">
  <defs>
    <style>
      .cls-1, .cls-2 {
        fill: #f3ba2f;
      }

      .cls-3 {
        fill: #fff;
      }

      .cls-2, .cls-4 {
        fill-rule: evenodd;
      }

      .cls-4 {
        fill: #060710;
      }
    </style>
  </defs>
  <path class="cls-2" d="M61.33,22h21.33c27.25,0,39.34,12.09,39.34,39.33v21.34c0,27.25-12.09,39.33-39.34,39.33h-21.33c-27.25,0-39.33-12.09-39.33-39.33v-21.34c0-27.25,12.09-39.33,39.33-39.33"/>
  <g>
    <circle class="cls-3" cx="72.17" cy="71.5" r="33.48"/>
    <path class="cls-4" d="M105.65,71.5c0,18.49-14.99,33.48-33.48,33.48s-33.48-14.99-33.48-33.48,14.99-33.48,33.48-33.48,33.48,14.99,33.48,33.48Zm-19.13,26.18l11.84-11.84-5.63-5.63c-2.26,5.32-6.52,9.58-11.84,11.84l5.63,5.63Zm-21.51-5.04c-5.52-1.87-10.08-5.84-12.71-10.97l-4.56,4.56,11.84,11.84,5.43-5.43Zm-13.39-29.86c2.26-5.32,6.52-9.58,11.84-11.84l-4.56-4.56-11.84,11.84,4.56,4.56Zm30.73-11.15l4.84-4.84,11.84,11.84-5.71,5.71c-1.87-5.52-5.84-10.08-10.97-12.71Z"/>
    <path class="cls-1" d="M64.77,61.79l7.4-4.29,7.39,4.29-2.72,1.58-4.68-2.7-4.68,2.7-2.72-1.58Zm14.79,5.41l-2.72-1.58-4.68,2.7-4.68-2.7-2.72,1.58v3.17l4.68,2.7v5.41l2.72,1.58,2.72-1.58v-5.41l4.68-2.7v-3.17Zm0,8.58v-3.17l-2.72,1.58v3.17l2.72-1.58Zm1.93,1.12l-4.68,2.7v3.17l7.39-4.29v-8.58l-2.72,1.58v5.41Zm-2.72-12.4l2.72,1.58v3.17l2.72-1.58v-3.17l-2.72-1.58-2.72,1.58Zm-9.33,16.25v3.17l2.72,1.58,2.72-1.58v-3.17l-2.72,1.58-2.72-1.58Zm-4.68-4.97l2.72,1.58v-3.17l-2.72-1.58v3.17Zm4.68-11.28l2.72,1.58,2.72-1.58-2.72-1.58-2.72,1.58Zm-6.61,1.58l2.72-1.58-2.72-1.58-2.72,1.58v3.17l2.72,1.58v-3.17Zm0,5.41l-2.72-1.58v8.58l7.39,4.29v-3.17l-4.68-2.7v-5.41Z"/>
  </g>
</svg>