<?xml version="1.0" encoding="UTF-8"?>
<svg id="Layer_1" data-name="Layer 1" xmlns="http://www.w3.org/2000/svg" viewBox="0 0 144 144">
  <defs>
    <style>
      .cls-1 {
        fill: #fff;
      }

      .cls-2 {
        fill: #1969ff;
      }

      .cls-2, .cls-3 {
        fill-rule: evenodd;
      }

      .cls-3 {
        fill: #060710;
      }
    </style>
  </defs>
  <path class="cls-2" d="M58.73,22.3h21.33c27.25,0,39.34,12.09,39.34,39.33v21.34c0,27.25-12.09,39.33-39.34,39.33h-21.33c-27.25,0-39.33-12.09-39.33-39.33v-21.34c0-27.25,12.09-39.33,39.33-39.33"/>
  <circle class="cls-1" cx="69.4" cy="72.3" r="33.48"/>
  <g>
    <path class="cls-3" d="M102.88,72.3c0,18.49-14.99,33.48-33.48,33.48s-33.48-14.99-33.48-33.48,14.99-33.48,33.48-33.48,33.48,14.99,33.48,33.48Zm-19.13,26.18l11.84-11.84-5.63-5.63c-2.26,5.32-6.52,9.58-11.84,11.84l5.63,5.63Zm-21.51-5.04c-5.52-1.87-10.08-5.84-12.71-10.97l-4.56,4.56,11.84,11.84,5.43-5.43Zm-13.39-29.86c2.26-5.32,6.52-9.58,11.84-11.84l-4.56-4.56-11.84,11.84,4.56,4.56Zm30.73-11.15l4.84-4.84,11.84,11.84-5.71,5.71c-1.87-5.52-5.84-10.08-10.97-12.71Z"/>
    <path class="cls-2" d="M70.54,67.47l4.76-2.78v5.55l-4.76-2.77Zm4.76,11.89l-6.34,3.7-6.34-3.7v-6.47l6.34,3.7,6.34-3.7v6.47Zm-12.69-14.67l4.76,2.78-4.76,2.77v-5.55Zm7.14,4.1l4.76,2.77-4.76,2.77v-5.55Zm-1.59,5.55l-4.76-2.77,4.76-2.77v5.55Zm6.34-10.97l-5.55,3.17-5.55-3.17,5.55-3.3,5.55,3.3Zm-13.48-.53v17.31l7.93,4.49,7.93-4.49v-17.31l-7.93-4.49-7.93,4.49Z"/>
  </g>
</svg>