<?xml version="1.0" encoding="UTF-8"?>
<svg id="Layer_1" data-name="Layer 1" xmlns="http://www.w3.org/2000/svg" viewBox="0 0 144 144">
  <defs>
    <style>
      .cls-1 {
        fill: #fff;
      }

      .cls-2, .cls-3 {
        fill: #7630ec;
      }

      .cls-3, .cls-4 {
        fill-rule: evenodd;
      }

      .cls-4 {
        fill: #060710;
      }
    </style>
  </defs>
  <path class="cls-3" d="M58.73,22.3h21.33c27.25,0,39.34,12.09,39.34,39.33v21.34c0,27.25-12.09,39.33-39.34,39.33h-21.33c-27.25,0-39.33-12.09-39.33-39.33v-21.34c0-27.25,12.09-39.33,39.33-39.33"/>
  <g>
    <circle class="cls-1" cx="69.4" cy="72.3" r="33.48"/>
    <g>
      <path class="cls-4" d="M102.88,72.3c0,18.49-14.99,33.48-33.48,33.48s-33.48-14.99-33.48-33.48,14.99-33.48,33.48-33.48,33.48,14.99,33.48,33.48Zm-19.13,26.18l11.84-11.84-5.63-5.63c-2.26,5.32-6.52,9.58-11.84,11.84l5.63,5.63Zm-21.51-5.04c-5.52-1.87-10.08-5.84-12.71-10.97l-4.56,4.56,11.84,11.84,5.43-5.43Zm-13.39-29.86c2.26-5.32,6.52-9.58,11.84-11.84l-4.56-4.56-11.84,11.84,4.56,4.56Zm30.73-11.15l4.84-4.84,11.84,11.84-5.71,5.71c-1.87-5.52-5.84-10.08-10.97-12.71Z"/>
      <path class="cls-2" d="M77.12,68.66c-.49-.26-1.12-.26-1.68,0l-3.92,2.19-2.66,1.39-3.85,2.19c-.49,.27-1.12,.27-1.68,0l-3.01-1.72c-.49-.26-.84-.79-.84-1.39v-3.31c0-.53,.28-1.06,.84-1.39l3.01-1.66c.49-.26,1.12-.26,1.68,0l3.01,1.72c.49,.26,.84,.79,.84,1.39v2.19l2.66-1.46v-2.25c0-.53-.28-1.06-.84-1.39l-5.59-3.11c-.49-.27-1.12-.27-1.68,0l-5.73,3.18c-.56,.27-.84,.79-.84,1.32v6.23c0,.53,.28,1.06,.84,1.39l5.66,3.11c.49,.26,1.12,.26,1.68,0l3.85-2.12,2.66-1.46,3.85-2.12c.49-.26,1.12-.26,1.68,0l3.01,1.66c.49,.26,.84,.79,.84,1.39v3.31c0,.53-.28,1.06-.84,1.39l-2.94,1.66c-.49,.26-1.12,.26-1.68,0l-3.01-1.66c-.49-.26-.84-.79-.84-1.39v-2.12l-2.66,1.46v2.19c0,.53,.28,1.06,.84,1.39l5.66,3.11c.49,.26,1.12,.26,1.68,0l5.66-3.11c.49-.26,.84-.79,.84-1.39v-6.29c0-.53-.28-1.06-.84-1.39l-5.66-3.11Z"/>
    </g>
  </g>
</svg>